<svg width="25" height="24" viewBox="0 0 25 24" fill="none" xmlns="http://www.w3.org/2000/svg">
<path fill-rule="evenodd" clip-rule="evenodd" d="M1.96439 9.1416C1.15564 9.1416 0.499999 8.48598 0.499999 7.67718L0.499999 1.46442C0.499999 0.655622 1.15564 -2.86588e-08 1.96439 -6.40108e-08L8.17729 -3.35585e-07C8.98605 -3.70937e-07 9.64168 0.655622 9.64168 1.46442C9.64168 2.27308 8.98605 2.9287 8.17729 2.9287L5.49944 2.9287L13.3547 10.7839C13.9266 11.3557 13.9266 12.2829 13.3547 12.8548C12.7828 13.4267 11.8555 13.4267 11.2838 12.8548L3.42879 5.00005L3.42879 7.67718C3.42879 8.48598 2.77315 9.1416 1.96439 9.1416ZM1.8019 19.6069C1.8019 22.0331 3.7688 24 6.19509 24L20.1069 24C22.5331 24 24.5 22.0331 24.5 19.6069L24.5 5.69534C24.5 3.26908 22.5331 1.30221 20.1069 1.30221L14.2492 1.30221C13.4405 1.30221 12.7849 1.95783 12.7849 2.76663C12.7849 3.57529 13.4405 4.23092 14.2492 4.23092L20.1069 4.23092C20.9155 4.23092 21.5712 4.88654 21.5712 5.69534L21.5712 19.6069C21.5712 20.4156 20.9155 21.0713 20.1069 21.0713L6.19509 21.0713C5.38632 21.0713 4.73069 20.4156 4.73069 19.6069L4.73069 13.7495C4.73069 12.9407 4.07505 12.285 3.2663 12.285C2.45754 12.285 1.8019 12.9407 1.8019 13.7495L1.8019 19.6069Z" fill="#2741EA"/>
</svg>
